<mxfile host="app.diagrams.net" modified="2021-08-12T01:41:36.799Z" agent="5.0 (Macintosh; Intel Mac OS X 10_16_0) AppleWebKit/537.36 (KHTML, like Gecko) Chrome/84.0.4147.89 Safari/537.36" etag="3F-hHJTvY5UDrIE4D4P7" version="14.9.6" type="github">
  <diagram id="i0pixAKEUi8QdBNbzPRG" name="Page-1">
    <mxGraphModel dx="1186" dy="1933" grid="1" gridSize="10" guides="1" tooltips="1" connect="1" arrows="1" fold="1" page="1" pageScale="1" pageWidth="827" pageHeight="1169" math="0" shadow="0">
      <root>
        <mxCell id="0" />
        <mxCell id="1" parent="0" />
        <mxCell id="qRFssZFph_RpDRNMA1QW-113" value="" style="endArrow=none;dashed=1;html=1;dashPattern=1 3;strokeWidth=2;" parent="1" edge="1">
          <mxGeometry width="50" height="50" relative="1" as="geometry">
            <mxPoint x="30" y="130" as="sourcePoint" />
            <mxPoint x="780" y="130" as="targetPoint" />
          </mxGeometry>
        </mxCell>
        <mxCell id="qRFssZFph_RpDRNMA1QW-107" value="" style="rounded=1;whiteSpace=wrap;html=1;fillColor=#d5e8d4;strokeColor=#82b366;" parent="1" vertex="1">
          <mxGeometry x="130" y="170" width="230" height="320" as="geometry" />
        </mxCell>
        <mxCell id="qRFssZFph_RpDRNMA1QW-40" value="" style="endArrow=none;dashed=1;html=1;dashPattern=1 3;strokeWidth=2;" parent="1" edge="1">
          <mxGeometry width="50" height="50" relative="1" as="geometry">
            <mxPoint x="40" y="640" as="sourcePoint" />
            <mxPoint x="760" y="640" as="targetPoint" />
          </mxGeometry>
        </mxCell>
        <mxCell id="qRFssZFph_RpDRNMA1QW-84" value="Packet Foward" style="edgeStyle=none;rounded=0;orthogonalLoop=1;jettySize=auto;html=1;exitX=0.75;exitY=1;exitDx=0;exitDy=0;startArrow=none;startFill=0;endArrow=classic;endFill=1;entryX=0.75;entryY=0;entryDx=0;entryDy=0;" parent="1" source="qRFssZFph_RpDRNMA1QW-44" target="qRFssZFph_RpDRNMA1QW-5" edge="1">
          <mxGeometry relative="1" as="geometry">
            <mxPoint x="325" y="709" as="targetPoint" />
            <Array as="points">
              <mxPoint x="325" y="670" />
            </Array>
          </mxGeometry>
        </mxCell>
        <mxCell id="qRFssZFph_RpDRNMA1QW-44" value="" style="rounded=1;whiteSpace=wrap;html=1;fillColor=#d5e8d4;strokeColor=#82b366;" parent="1" vertex="1">
          <mxGeometry x="190" y="515" width="180" height="100" as="geometry" />
        </mxCell>
        <mxCell id="qRFssZFph_RpDRNMA1QW-115" style="edgeStyle=none;rounded=0;orthogonalLoop=1;jettySize=auto;html=1;exitX=0.5;exitY=0;exitDx=0;exitDy=0;entryX=0.5;entryY=1;entryDx=0;entryDy=0;entryPerimeter=0;startArrow=classic;startFill=1;endArrow=classic;endFill=1;" parent="1" source="qRFssZFph_RpDRNMA1QW-26" target="qRFssZFph_RpDRNMA1QW-38" edge="1">
          <mxGeometry relative="1" as="geometry" />
        </mxCell>
        <mxCell id="qRFssZFph_RpDRNMA1QW-26" value="" style="rounded=0;whiteSpace=wrap;html=1;fillColor=#fff2cc;strokeColor=#d6b656;" parent="1" vertex="1">
          <mxGeometry x="450" y="205" width="120" height="240" as="geometry" />
        </mxCell>
        <mxCell id="qRFssZFph_RpDRNMA1QW-2" value="User Space" style="text;html=1;align=center;verticalAlign=middle;resizable=0;points=[];autosize=1;strokeColor=none;" parent="1" vertex="1">
          <mxGeometry x="30" y="80" width="80" height="20" as="geometry" />
        </mxCell>
        <mxCell id="qRFssZFph_RpDRNMA1QW-3" value="Kernel Space&lt;br&gt;" style="text;html=1;align=center;verticalAlign=middle;resizable=0;points=[];autosize=1;strokeColor=none;" parent="1" vertex="1">
          <mxGeometry x="30" y="230" width="90" height="20" as="geometry" />
        </mxCell>
        <mxCell id="qRFssZFph_RpDRNMA1QW-4" value="&lt;font style=&quot;font-size: 25px&quot;&gt;XDP eBPF&lt;/font&gt;" style="text;html=1;align=center;verticalAlign=middle;resizable=0;points=[];autosize=1;strokeColor=none;" parent="1" vertex="1">
          <mxGeometry x="50" y="-110" width="140" height="20" as="geometry" />
        </mxCell>
        <mxCell id="qRFssZFph_RpDRNMA1QW-83" value="Packet Recieve" style="edgeStyle=none;rounded=0;orthogonalLoop=1;jettySize=auto;html=1;exitX=0.25;exitY=0;exitDx=0;exitDy=0;entryX=0.25;entryY=1;entryDx=0;entryDy=0;startArrow=none;startFill=0;endArrow=classic;endFill=1;" parent="1" source="qRFssZFph_RpDRNMA1QW-5" target="qRFssZFph_RpDRNMA1QW-44" edge="1">
          <mxGeometry relative="1" as="geometry" />
        </mxCell>
        <mxCell id="qRFssZFph_RpDRNMA1QW-5" value="NIC设备" style="rounded=1;whiteSpace=wrap;html=1;fillColor=#eeeeee;strokeColor=#36393d;" parent="1" vertex="1">
          <mxGeometry x="190" y="680" width="180" height="75" as="geometry" />
        </mxCell>
        <mxCell id="qRFssZFph_RpDRNMA1QW-7" value="Hardware&lt;br&gt;" style="text;html=1;align=center;verticalAlign=middle;resizable=0;points=[];autosize=1;strokeColor=none;" parent="1" vertex="1">
          <mxGeometry x="45" y="650" width="70" height="20" as="geometry" />
        </mxCell>
        <mxCell id="qRFssZFph_RpDRNMA1QW-9" value="Socket&lt;br&gt;" style="rounded=1;whiteSpace=wrap;html=1;fillColor=#dae8fc;strokeColor=#6c8ebf;" parent="1" vertex="1">
          <mxGeometry x="190" y="180" width="120" height="60" as="geometry" />
        </mxCell>
        <mxCell id="qRFssZFph_RpDRNMA1QW-12" value="XDP" style="rounded=1;whiteSpace=wrap;html=1;fillColor=#ffcccc;strokeColor=#36393d;" parent="1" vertex="1">
          <mxGeometry x="225" y="555" width="110" height="50" as="geometry" />
        </mxCell>
        <mxCell id="qRFssZFph_RpDRNMA1QW-110" style="edgeStyle=none;rounded=0;orthogonalLoop=1;jettySize=auto;html=1;exitX=0.5;exitY=0;exitDx=0;exitDy=0;entryX=0.5;entryY=1;entryDx=0;entryDy=0;startArrow=none;startFill=0;endArrow=classic;endFill=1;" parent="1" source="qRFssZFph_RpDRNMA1QW-13" target="qRFssZFph_RpDRNMA1QW-15" edge="1">
          <mxGeometry relative="1" as="geometry" />
        </mxCell>
        <mxCell id="qRFssZFph_RpDRNMA1QW-13" value="Traffic Control" style="rounded=1;whiteSpace=wrap;html=1;fillColor=#dae8fc;strokeColor=#6c8ebf;" parent="1" vertex="1">
          <mxGeometry x="190" y="420" width="120" height="60" as="geometry" />
        </mxCell>
        <mxCell id="qRFssZFph_RpDRNMA1QW-112" style="edgeStyle=none;rounded=0;orthogonalLoop=1;jettySize=auto;html=1;exitX=0.5;exitY=0;exitDx=0;exitDy=0;entryX=0.5;entryY=1;entryDx=0;entryDy=0;startArrow=none;startFill=0;endArrow=classic;endFill=1;" parent="1" source="qRFssZFph_RpDRNMA1QW-14" target="qRFssZFph_RpDRNMA1QW-9" edge="1">
          <mxGeometry relative="1" as="geometry" />
        </mxCell>
        <mxCell id="qRFssZFph_RpDRNMA1QW-14" value="TCP Stack&lt;br&gt;" style="rounded=1;whiteSpace=wrap;html=1;fillColor=#dae8fc;strokeColor=#6c8ebf;" parent="1" vertex="1">
          <mxGeometry x="190" y="260" width="120" height="60" as="geometry" />
        </mxCell>
        <mxCell id="qRFssZFph_RpDRNMA1QW-111" style="edgeStyle=none;rounded=0;orthogonalLoop=1;jettySize=auto;html=1;exitX=0.5;exitY=0;exitDx=0;exitDy=0;entryX=0.5;entryY=1;entryDx=0;entryDy=0;startArrow=none;startFill=0;endArrow=classic;endFill=1;" parent="1" source="qRFssZFph_RpDRNMA1QW-15" target="qRFssZFph_RpDRNMA1QW-14" edge="1">
          <mxGeometry relative="1" as="geometry" />
        </mxCell>
        <mxCell id="qRFssZFph_RpDRNMA1QW-15" value="Netfilter" style="rounded=1;whiteSpace=wrap;html=1;fillColor=#dae8fc;strokeColor=#6c8ebf;" parent="1" vertex="1">
          <mxGeometry x="190" y="340" width="120" height="60" as="geometry" />
        </mxCell>
        <mxCell id="qRFssZFph_RpDRNMA1QW-94" style="edgeStyle=none;rounded=0;orthogonalLoop=1;jettySize=auto;html=1;exitX=0.5;exitY=1;exitDx=0;exitDy=0;entryX=0.5;entryY=0;entryDx=0;entryDy=0;startArrow=none;startFill=0;endArrow=classic;endFill=1;" parent="1" source="qRFssZFph_RpDRNMA1QW-16" target="qRFssZFph_RpDRNMA1QW-21" edge="1">
          <mxGeometry relative="1" as="geometry">
            <mxPoint x="720" y="45" as="targetPoint" />
          </mxGeometry>
        </mxCell>
        <mxCell id="qRFssZFph_RpDRNMA1QW-16" value="" style="rounded=0;whiteSpace=wrap;html=1;fillColor=#fff2cc;strokeColor=#d6b656;" parent="1" vertex="1">
          <mxGeometry x="510" y="-65" width="235" height="100" as="geometry" />
        </mxCell>
        <mxCell id="qRFssZFph_RpDRNMA1QW-18" value="Verifier" style="rounded=0;whiteSpace=wrap;html=1;fillColor=#ffff88;strokeColor=#36393d;" parent="1" vertex="1">
          <mxGeometry x="460" y="270" width="100" height="40" as="geometry" />
        </mxCell>
        <mxCell id="qRFssZFph_RpDRNMA1QW-19" value="JIT Compiler" style="rounded=0;whiteSpace=wrap;html=1;fillColor=#ffff88;strokeColor=#36393d;" parent="1" vertex="1">
          <mxGeometry x="460" y="325" width="100" height="40" as="geometry" />
        </mxCell>
        <mxCell id="qRFssZFph_RpDRNMA1QW-20" value="Network/Application Program" style="rounded=1;whiteSpace=wrap;html=1;" parent="1" vertex="1">
          <mxGeometry x="130" y="-25" width="120" height="60" as="geometry" />
        </mxCell>
        <mxCell id="qRFssZFph_RpDRNMA1QW-21" value="LLVM/Clang" style="rounded=0;whiteSpace=wrap;html=1;fillColor=#ffff88;strokeColor=#36393d;" parent="1" vertex="1">
          <mxGeometry x="577.5" y="50" width="100" height="40" as="geometry" />
        </mxCell>
        <mxCell id="qRFssZFph_RpDRNMA1QW-27" value="eBPF" style="text;html=1;strokeColor=none;fillColor=none;align=center;verticalAlign=middle;whiteSpace=wrap;rounded=0;" parent="1" vertex="1">
          <mxGeometry x="490" y="420" width="40" height="20" as="geometry" />
        </mxCell>
        <mxCell id="qRFssZFph_RpDRNMA1QW-28" value="Data Plane Driver" style="text;html=1;strokeColor=none;fillColor=none;align=center;verticalAlign=middle;whiteSpace=wrap;rounded=0;" parent="1" vertex="1">
          <mxGeometry x="230" y="525" width="100" height="20" as="geometry" />
        </mxCell>
        <mxCell id="qRFssZFph_RpDRNMA1QW-31" value="eBPF" style="rounded=0;whiteSpace=wrap;html=1;fillColor=#fff2cc;strokeColor=#d6b656;" parent="1" vertex="1">
          <mxGeometry x="290" y="435" width="60" height="30" as="geometry" />
        </mxCell>
        <mxCell id="qRFssZFph_RpDRNMA1QW-34" value="eBPF" style="rounded=0;whiteSpace=wrap;html=1;fillColor=#fff2cc;strokeColor=#d6b656;" parent="1" vertex="1">
          <mxGeometry x="290" y="355" width="60" height="30" as="geometry" />
        </mxCell>
        <mxCell id="qRFssZFph_RpDRNMA1QW-38" value="eBPF Maps" style="shape=cylinder3;whiteSpace=wrap;html=1;boundedLbl=1;backgroundOutline=1;size=15;fillColor=#fff2cc;strokeColor=#d6b656;" parent="1" vertex="1">
          <mxGeometry x="390" y="100" width="100" height="60" as="geometry" />
        </mxCell>
        <mxCell id="qRFssZFph_RpDRNMA1QW-53" value="bpf() syscall" style="rounded=0;whiteSpace=wrap;html=1;fillColor=#ffff88;strokeColor=#36393d;" parent="1" vertex="1">
          <mxGeometry x="570" y="110" width="100" height="40" as="geometry" />
        </mxCell>
        <mxCell id="qRFssZFph_RpDRNMA1QW-57" value="BPF Bytecode" style="rounded=0;whiteSpace=wrap;html=1;fillColor=#ffcc99;strokeColor=#36393d;" parent="1" vertex="1">
          <mxGeometry x="460" y="215" width="100" height="40" as="geometry" />
        </mxCell>
        <mxCell id="qRFssZFph_RpDRNMA1QW-61" value="eBPF" style="rounded=0;whiteSpace=wrap;html=1;fillColor=#fff2cc;strokeColor=#d6b656;" parent="1" vertex="1">
          <mxGeometry x="310" y="565" width="60" height="30" as="geometry" />
        </mxCell>
        <mxCell id="qRFssZFph_RpDRNMA1QW-62" value="hook" style="endArrow=classic;html=1;exitX=0.5;exitY=1;exitDx=0;exitDy=0;entryX=1;entryY=0.5;entryDx=0;entryDy=0;" parent="1" source="qRFssZFph_RpDRNMA1QW-26" target="qRFssZFph_RpDRNMA1QW-61" edge="1">
          <mxGeometry width="50" height="50" relative="1" as="geometry">
            <mxPoint x="470" y="440" as="sourcePoint" />
            <mxPoint x="520" y="390" as="targetPoint" />
            <Array as="points">
              <mxPoint x="510" y="580" />
            </Array>
          </mxGeometry>
        </mxCell>
        <mxCell id="qRFssZFph_RpDRNMA1QW-64" value="eBPF" style="rounded=0;whiteSpace=wrap;html=1;fillColor=#fff2cc;strokeColor=#d6b656;" parent="1" vertex="1">
          <mxGeometry x="290" y="275" width="60" height="30" as="geometry" />
        </mxCell>
        <mxCell id="qRFssZFph_RpDRNMA1QW-65" value="eBPF" style="rounded=0;whiteSpace=wrap;html=1;fillColor=#fff2cc;strokeColor=#d6b656;" parent="1" vertex="1">
          <mxGeometry x="290" y="195" width="60" height="30" as="geometry" />
        </mxCell>
        <mxCell id="qRFssZFph_RpDRNMA1QW-66" value="XDP" style="swimlane;" parent="1" vertex="1">
          <mxGeometry x="30" y="510" width="110" height="110" as="geometry" />
        </mxCell>
        <mxCell id="qRFssZFph_RpDRNMA1QW-67" value="XDP_REDIRECT&lt;br&gt;XDP_DROP&lt;br&gt;XDP_PASS&lt;br&gt;XDP_TX" style="text;html=1;align=center;verticalAlign=middle;resizable=0;points=[];autosize=1;strokeColor=none;" parent="qRFssZFph_RpDRNMA1QW-66" vertex="1">
          <mxGeometry y="40" width="110" height="60" as="geometry" />
        </mxCell>
        <mxCell id="qRFssZFph_RpDRNMA1QW-70" value="" style="endArrow=none;startArrow=none;html=1;exitX=0;exitY=0.5;exitDx=0;exitDy=0;entryX=1;entryY=0.5;entryDx=0;entryDy=0;startFill=0;endFill=0;dashed=1;" parent="1" source="qRFssZFph_RpDRNMA1QW-12" target="qRFssZFph_RpDRNMA1QW-66" edge="1">
          <mxGeometry width="50" height="50" relative="1" as="geometry">
            <mxPoint x="320" y="620" as="sourcePoint" />
            <mxPoint x="370" y="570" as="targetPoint" />
          </mxGeometry>
        </mxCell>
        <mxCell id="qRFssZFph_RpDRNMA1QW-79" value="" style="endArrow=classic;html=1;entryX=0.5;entryY=0;entryDx=0;entryDy=0;exitX=0.5;exitY=1;exitDx=0;exitDy=0;" parent="1" source="qRFssZFph_RpDRNMA1QW-21" target="qRFssZFph_RpDRNMA1QW-53" edge="1">
          <mxGeometry width="50" height="50" relative="1" as="geometry">
            <mxPoint x="540" y="180" as="sourcePoint" />
            <mxPoint x="420" y="350" as="targetPoint" />
          </mxGeometry>
        </mxCell>
        <mxCell id="qRFssZFph_RpDRNMA1QW-80" value="Native Bytecode" style="rounded=0;whiteSpace=wrap;html=1;fillColor=#ffcc99;strokeColor=#36393d;" parent="1" vertex="1">
          <mxGeometry x="460" y="375" width="100" height="40" as="geometry" />
        </mxCell>
        <mxCell id="qRFssZFph_RpDRNMA1QW-81" value="Packet Accept" style="endArrow=classic;html=1;exitX=0.5;exitY=0;exitDx=0;exitDy=0;entryX=0.5;entryY=1;entryDx=0;entryDy=0;" parent="1" source="qRFssZFph_RpDRNMA1QW-44" target="qRFssZFph_RpDRNMA1QW-13" edge="1">
          <mxGeometry width="50" height="50" relative="1" as="geometry">
            <mxPoint x="320" y="460" as="sourcePoint" />
            <mxPoint x="370" y="410" as="targetPoint" />
          </mxGeometry>
        </mxCell>
        <mxCell id="qRFssZFph_RpDRNMA1QW-86" value="" style="endArrow=classic;html=1;exitX=0.5;exitY=1;exitDx=0;exitDy=0;entryX=0.5;entryY=0;entryDx=0;entryDy=0;entryPerimeter=0;" parent="1" source="qRFssZFph_RpDRNMA1QW-53" target="qRFssZFph_RpDRNMA1QW-26" edge="1">
          <mxGeometry width="50" height="50" relative="1" as="geometry">
            <mxPoint x="320" y="420" as="sourcePoint" />
            <mxPoint x="370" y="370" as="targetPoint" />
          </mxGeometry>
        </mxCell>
        <mxCell id="qRFssZFph_RpDRNMA1QW-96" value="User Defined BPF Programs (C)" style="text;html=1;strokeColor=none;fillColor=none;align=center;verticalAlign=middle;whiteSpace=wrap;rounded=0;" parent="1" vertex="1">
          <mxGeometry x="520" y="-55" width="219" height="20" as="geometry" />
        </mxCell>
        <mxCell id="qRFssZFph_RpDRNMA1QW-97" value="Ddos Mitigation" style="rounded=0;whiteSpace=wrap;html=1;fillColor=#ffcc99;strokeColor=#36393d;" parent="1" vertex="1">
          <mxGeometry x="515" y="-25" width="110" height="25" as="geometry" />
        </mxCell>
        <mxCell id="qRFssZFph_RpDRNMA1QW-98" value="Container Security" style="rounded=0;whiteSpace=wrap;html=1;fillColor=#ffcc99;strokeColor=#36393d;" parent="1" vertex="1">
          <mxGeometry x="515" y="5" width="110" height="25" as="geometry" />
        </mxCell>
        <mxCell id="qRFssZFph_RpDRNMA1QW-99" value="SDN Configuration" style="rounded=0;whiteSpace=wrap;html=1;fillColor=#ffcc99;strokeColor=#36393d;" parent="1" vertex="1">
          <mxGeometry x="630" y="-25" width="110" height="25" as="geometry" />
        </mxCell>
        <mxCell id="qRFssZFph_RpDRNMA1QW-102" value="Observability&lt;br&gt;" style="rounded=0;whiteSpace=wrap;html=1;fillColor=#ffcc99;strokeColor=#36393d;" parent="1" vertex="1">
          <mxGeometry x="630" y="5" width="110" height="25" as="geometry" />
        </mxCell>
        <mxCell id="qRFssZFph_RpDRNMA1QW-103" value="VM in Kernel&lt;br&gt;Event Based" style="text;html=1;align=center;verticalAlign=middle;resizable=0;points=[];autosize=1;strokeColor=none;" parent="1" vertex="1">
          <mxGeometry x="530" y="450" width="80" height="30" as="geometry" />
        </mxCell>
        <mxCell id="qRFssZFph_RpDRNMA1QW-108" value="Network Stack&lt;br&gt;" style="text;html=1;strokeColor=none;fillColor=none;align=center;verticalAlign=middle;whiteSpace=wrap;rounded=0;rotation=270;" parent="1" vertex="1">
          <mxGeometry x="115" y="320" width="100" height="20" as="geometry" />
        </mxCell>
        <mxCell id="qRFssZFph_RpDRNMA1QW-120" value="Control Plane&amp;nbsp;" style="rounded=1;whiteSpace=wrap;html=1;" parent="1" vertex="1">
          <mxGeometry x="310" y="-25" width="120" height="60" as="geometry" />
        </mxCell>
        <mxCell id="sm-2WSCNd7eTFYRMrW8v-1" value="" style="endArrow=none;html=1;exitX=1;exitY=0.5;exitDx=0;exitDy=0;" edge="1" parent="1" source="qRFssZFph_RpDRNMA1QW-65">
          <mxGeometry width="50" height="50" relative="1" as="geometry">
            <mxPoint x="380" y="260" as="sourcePoint" />
            <mxPoint x="380" y="210" as="targetPoint" />
          </mxGeometry>
        </mxCell>
        <mxCell id="sm-2WSCNd7eTFYRMrW8v-2" value="" style="endArrow=none;html=1;exitX=1;exitY=0.5;exitDx=0;exitDy=0;" edge="1" parent="1">
          <mxGeometry width="50" height="50" relative="1" as="geometry">
            <mxPoint x="350" y="289.5" as="sourcePoint" />
            <mxPoint x="380" y="290" as="targetPoint" />
          </mxGeometry>
        </mxCell>
        <mxCell id="sm-2WSCNd7eTFYRMrW8v-3" value="" style="endArrow=none;html=1;exitX=1;exitY=0.5;exitDx=0;exitDy=0;" edge="1" parent="1">
          <mxGeometry width="50" height="50" relative="1" as="geometry">
            <mxPoint x="350" y="369.5" as="sourcePoint" />
            <mxPoint x="380" y="370" as="targetPoint" />
          </mxGeometry>
        </mxCell>
        <mxCell id="sm-2WSCNd7eTFYRMrW8v-4" value="" style="endArrow=none;html=1;exitX=1;exitY=0.5;exitDx=0;exitDy=0;" edge="1" parent="1">
          <mxGeometry width="50" height="50" relative="1" as="geometry">
            <mxPoint x="350" y="449.5" as="sourcePoint" />
            <mxPoint x="380" y="450" as="targetPoint" />
          </mxGeometry>
        </mxCell>
        <mxCell id="sm-2WSCNd7eTFYRMrW8v-5" value="" style="endArrow=none;html=1;fontFamily=Helvetica;fontSize=11;fontColor=#000000;align=center;strokeColor=#000000;" edge="1" parent="1">
          <mxGeometry width="50" height="50" relative="1" as="geometry">
            <mxPoint x="380" y="450" as="sourcePoint" />
            <mxPoint x="380" y="210" as="targetPoint" />
          </mxGeometry>
        </mxCell>
        <mxCell id="sm-2WSCNd7eTFYRMrW8v-6" value="hooks" style="endArrow=none;html=1;entryX=0;entryY=0.5;entryDx=0;entryDy=0;" edge="1" parent="1" target="qRFssZFph_RpDRNMA1QW-26">
          <mxGeometry width="50" height="50" relative="1" as="geometry">
            <mxPoint x="380" y="325" as="sourcePoint" />
            <mxPoint x="350" y="350" as="targetPoint" />
          </mxGeometry>
        </mxCell>
      </root>
    </mxGraphModel>
  </diagram>
</mxfile>
